# xmcd
#
# Track frame offsets:
#	150
#	12175
#	27170
#	40914
#	49010
#	58522
#	71634
#	85767
#	95535
#	105805
#
# Disc length: 1562 seconds
#
# Revision: 0
# Processed by: cddbd v1.4PL0 Copyright (c) Steve Scherf et al.
# Submitted via: dBpowerAMP V4.0
#
DISCID=7006180a
DTITLE=Anne Murray - The Very Best Of Anne Murray
DYEAR=2000
DGENRE=Blues
TTITLE0=All the Time
TTITLE1=From Both Sides Now
TTITLE2=There Goes My Everything
TTITLE3=Paths Of Victory
TTITLE4=Some Birds
TTITLE5=Buffalo In the Park
TTITLE6=David's Song
TTITLE7=It's all over
TTITLE8=For baby
TTITLE9=The last thing on my mind
EXTD=Sami Osman
EXTT0=
EXTT1=
EXTT2=
EXTT3=
EXTT4=
EXTT5=
EXTT6=
EXTT7=
EXTT8=
EXTT9=
PLAYORDER=
